<mxfile host="app.diagrams.net" agent="Mozilla/5.0 (Windows NT 10.0; Win64; x64) AppleWebKit/537.36 (KHTML, like Gecko) Chrome/140.0.0.0 Safari/537.36" version="28.2.3">
  <diagram name="Trang-1" id="JojmZNU0bUS56xxUwK8E">
    <mxGraphModel dx="1429" dy="758" grid="1" gridSize="10" guides="1" tooltips="1" connect="1" arrows="1" fold="1" page="1" pageScale="1" pageWidth="827" pageHeight="1169" math="0" shadow="0">
      <root>
        <mxCell id="0" />
        <mxCell id="1" parent="0" />
        <mxCell id="zXhZuAach-D9ig53cb7e-1" value="Buyer" style="shape=umlActor;verticalLabelPosition=bottom;verticalAlign=top;html=1;outlineConnect=0;" vertex="1" parent="1">
          <mxGeometry x="250" y="90" width="40" height="90" as="geometry" />
        </mxCell>
        <mxCell id="zXhZuAach-D9ig53cb7e-2" value="SysAdmin" style="shape=umlActor;verticalLabelPosition=bottom;verticalAlign=top;html=1;outlineConnect=0;" vertex="1" parent="1">
          <mxGeometry x="500" y="90" width="40" height="90" as="geometry" />
        </mxCell>
        <mxCell id="zXhZuAach-D9ig53cb7e-3" value="&lt;font style=&quot;font-size: 24px;&quot;&gt;PRESENTATION TIER&lt;/font&gt;" style="html=1;whiteSpace=wrap;" vertex="1" parent="1">
          <mxGeometry x="80" y="250" width="640" height="100" as="geometry" />
        </mxCell>
        <mxCell id="zXhZuAach-D9ig53cb7e-4" value="&lt;blockquote style=&quot;margin: 0 0 0 40px; border: none; padding: 0px;&quot;&gt;&lt;div style=&quot;&quot;&gt;&lt;br&gt;&lt;/div&gt;&lt;/blockquote&gt;" style="html=1;whiteSpace=wrap;align=center;" vertex="1" parent="1">
          <mxGeometry x="80" y="403" width="640" height="200" as="geometry" />
        </mxCell>
        <mxCell id="zXhZuAach-D9ig53cb7e-5" value="" style="html=1;whiteSpace=wrap;" vertex="1" parent="1">
          <mxGeometry x="80" y="660" width="640" height="170" as="geometry" />
        </mxCell>
        <mxCell id="zXhZuAach-D9ig53cb7e-7" value="Product Catalog Service" style="html=1;whiteSpace=wrap;" vertex="1" parent="1">
          <mxGeometry x="220" y="470" width="110" height="90" as="geometry" />
        </mxCell>
        <mxCell id="zXhZuAach-D9ig53cb7e-8" value="Shopping Cart Service" style="html=1;whiteSpace=wrap;" vertex="1" parent="1">
          <mxGeometry x="345" y="470" width="110" height="90" as="geometry" />
        </mxCell>
        <mxCell id="zXhZuAach-D9ig53cb7e-9" value="Inventory Service" style="html=1;whiteSpace=wrap;" vertex="1" parent="1">
          <mxGeometry x="470" y="470" width="110" height="90" as="geometry" />
        </mxCell>
        <mxCell id="zXhZuAach-D9ig53cb7e-14" value="&lt;font style=&quot;font-size: 24px;&quot;&gt;BUSINESS LOGIC TIER&lt;/font&gt;" style="text;html=1;align=center;verticalAlign=middle;resizable=0;points=[];autosize=1;strokeColor=none;fillColor=none;" vertex="1" parent="1">
          <mxGeometry x="245" y="403" width="290" height="40" as="geometry" />
        </mxCell>
        <mxCell id="zXhZuAach-D9ig53cb7e-15" value="&lt;font style=&quot;font-size: 24px;&quot;&gt;DATA TIER&lt;/font&gt;" style="text;html=1;align=center;verticalAlign=middle;resizable=0;points=[];autosize=1;strokeColor=none;fillColor=none;" vertex="1" parent="1">
          <mxGeometry x="319" y="675" width="140" height="40" as="geometry" />
        </mxCell>
        <mxCell id="zXhZuAach-D9ig53cb7e-16" value="MongoDB" style="html=1;whiteSpace=wrap;" vertex="1" parent="1">
          <mxGeometry x="220" y="740" width="110" height="70" as="geometry" />
        </mxCell>
        <mxCell id="zXhZuAach-D9ig53cb7e-17" value="Redis" style="html=1;whiteSpace=wrap;" vertex="1" parent="1">
          <mxGeometry x="350" y="740" width="110" height="70" as="geometry" />
        </mxCell>
        <mxCell id="zXhZuAach-D9ig53cb7e-18" value="Redis" style="html=1;whiteSpace=wrap;" vertex="1" parent="1">
          <mxGeometry x="480" y="740" width="110" height="70" as="geometry" />
        </mxCell>
        <mxCell id="zXhZuAach-D9ig53cb7e-19" value="&lt;ul&gt;&lt;li&gt;React.js, Angular, Vue.js&lt;/li&gt;&lt;/ul&gt;" style="text;html=1;align=center;verticalAlign=middle;resizable=0;points=[];autosize=1;strokeColor=none;fillColor=none;" vertex="1" parent="1">
          <mxGeometry x="290" y="310" width="190" height="50" as="geometry" />
        </mxCell>
        <mxCell id="zXhZuAach-D9ig53cb7e-20" value="Access Control Service" style="html=1;whiteSpace=wrap;" vertex="1" parent="1">
          <mxGeometry x="90" y="470" width="110" height="90" as="geometry" />
        </mxCell>
        <mxCell id="zXhZuAach-D9ig53cb7e-21" value="Rating Service" style="html=1;whiteSpace=wrap;" vertex="1" parent="1">
          <mxGeometry x="600" y="470" width="110" height="90" as="geometry" />
        </mxCell>
        <mxCell id="zXhZuAach-D9ig53cb7e-22" value="PostgreSQL" style="html=1;whiteSpace=wrap;" vertex="1" parent="1">
          <mxGeometry x="100" y="740" width="110" height="70" as="geometry" />
        </mxCell>
        <mxCell id="zXhZuAach-D9ig53cb7e-23" value="Elasticsearch" style="html=1;whiteSpace=wrap;" vertex="1" parent="1">
          <mxGeometry x="600" y="740" width="110" height="70" as="geometry" />
        </mxCell>
        <mxCell id="zXhZuAach-D9ig53cb7e-26" value="" style="endArrow=open;endFill=1;endSize=12;html=1;rounded=0;entryX=0.297;entryY=0.011;entryDx=0;entryDy=0;entryPerimeter=0;" edge="1" parent="1" source="zXhZuAach-D9ig53cb7e-1" target="zXhZuAach-D9ig53cb7e-3">
          <mxGeometry width="160" relative="1" as="geometry">
            <mxPoint x="220" y="220" as="sourcePoint" />
            <mxPoint x="380" y="220" as="targetPoint" />
          </mxGeometry>
        </mxCell>
        <mxCell id="zXhZuAach-D9ig53cb7e-27" value="" style="endArrow=open;endFill=1;endSize=12;html=1;rounded=0;entryX=0.688;entryY=-0.006;entryDx=0;entryDy=0;entryPerimeter=0;" edge="1" parent="1" source="zXhZuAach-D9ig53cb7e-2" target="zXhZuAach-D9ig53cb7e-3">
          <mxGeometry width="160" relative="1" as="geometry">
            <mxPoint x="490" y="220" as="sourcePoint" />
            <mxPoint x="650" y="220" as="targetPoint" />
          </mxGeometry>
        </mxCell>
        <mxCell id="zXhZuAach-D9ig53cb7e-28" value="" style="endArrow=open;endFill=1;endSize=12;html=1;rounded=0;entryX=0.536;entryY=0.035;entryDx=0;entryDy=0;entryPerimeter=0;" edge="1" parent="1" target="zXhZuAach-D9ig53cb7e-14">
          <mxGeometry width="160" relative="1" as="geometry">
            <mxPoint x="400" y="350" as="sourcePoint" />
            <mxPoint x="530" y="370" as="targetPoint" />
          </mxGeometry>
        </mxCell>
        <mxCell id="zXhZuAach-D9ig53cb7e-29" value="" style="endArrow=open;endFill=1;endSize=12;html=1;rounded=0;exitX=0.5;exitY=1;exitDx=0;exitDy=0;" edge="1" parent="1" source="zXhZuAach-D9ig53cb7e-20">
          <mxGeometry width="160" relative="1" as="geometry">
            <mxPoint x="110" y="630" as="sourcePoint" />
            <mxPoint x="145" y="738" as="targetPoint" />
          </mxGeometry>
        </mxCell>
        <mxCell id="zXhZuAach-D9ig53cb7e-30" value="" style="endArrow=open;endFill=1;endSize=12;html=1;rounded=0;exitX=0.5;exitY=1;exitDx=0;exitDy=0;entryX=0.5;entryY=0;entryDx=0;entryDy=0;" edge="1" parent="1" source="zXhZuAach-D9ig53cb7e-7" target="zXhZuAach-D9ig53cb7e-16">
          <mxGeometry width="160" relative="1" as="geometry">
            <mxPoint x="250" y="630" as="sourcePoint" />
            <mxPoint x="410" y="630" as="targetPoint" />
          </mxGeometry>
        </mxCell>
        <mxCell id="zXhZuAach-D9ig53cb7e-31" value="" style="endArrow=open;endFill=1;endSize=12;html=1;rounded=0;exitX=0.5;exitY=1;exitDx=0;exitDy=0;" edge="1" parent="1" source="zXhZuAach-D9ig53cb7e-8">
          <mxGeometry width="160" relative="1" as="geometry">
            <mxPoint x="340" y="640" as="sourcePoint" />
            <mxPoint x="400" y="740" as="targetPoint" />
          </mxGeometry>
        </mxCell>
        <mxCell id="zXhZuAach-D9ig53cb7e-32" value="" style="endArrow=open;endFill=1;endSize=12;html=1;rounded=0;exitX=0.5;exitY=1;exitDx=0;exitDy=0;" edge="1" parent="1" source="zXhZuAach-D9ig53cb7e-9">
          <mxGeometry width="160" relative="1" as="geometry">
            <mxPoint x="490" y="630" as="sourcePoint" />
            <mxPoint x="525" y="740" as="targetPoint" />
          </mxGeometry>
        </mxCell>
        <mxCell id="zXhZuAach-D9ig53cb7e-33" value="" style="endArrow=open;endFill=1;endSize=12;html=1;rounded=0;exitX=0.5;exitY=1;exitDx=0;exitDy=0;entryX=0.5;entryY=0;entryDx=0;entryDy=0;" edge="1" parent="1" source="zXhZuAach-D9ig53cb7e-21" target="zXhZuAach-D9ig53cb7e-23">
          <mxGeometry width="160" relative="1" as="geometry">
            <mxPoint x="630" y="630" as="sourcePoint" />
            <mxPoint x="790" y="630" as="targetPoint" />
          </mxGeometry>
        </mxCell>
      </root>
    </mxGraphModel>
  </diagram>
</mxfile>
